<mxfile host="app.diagrams.net" modified="2024-01-19T12:16:55.965Z" agent="Mozilla/5.0 (Windows NT 10.0; Win64; x64) AppleWebKit/537.36 (KHTML, like Gecko) Chrome/120.0.0.0 Safari/537.36" etag="erkMz4w0JGcE3_3MTjh3" version="22.1.21" type="device">
  <diagram name="Page-1" id="j4PVrQwJr-2V7cFGuJLz">
    <mxGraphModel dx="2084" dy="620" grid="1" gridSize="10" guides="1" tooltips="1" connect="1" arrows="1" fold="1" page="1" pageScale="1" pageWidth="827" pageHeight="1169" math="0" shadow="0">
      <root>
        <mxCell id="0" />
        <mxCell id="1" parent="0" />
        <mxCell id="TGb0v_Ev0zIkkcW78ou3-4" value="Cluster" style="swimlane;whiteSpace=wrap;html=1;" vertex="1" parent="1">
          <mxGeometry x="130" y="200" width="540" height="440" as="geometry" />
        </mxCell>
        <mxCell id="TGb0v_Ev0zIkkcW78ou3-6" value="Service" style="swimlane;whiteSpace=wrap;html=1;" vertex="1" parent="TGb0v_Ev0zIkkcW78ou3-4">
          <mxGeometry x="126" y="160" width="360" height="260" as="geometry" />
        </mxCell>
        <mxCell id="TGb0v_Ev0zIkkcW78ou3-9" value="Pod" style="swimlane;whiteSpace=wrap;html=1;startSize=25;" vertex="1" parent="TGb0v_Ev0zIkkcW78ou3-6">
          <mxGeometry x="254" y="60" width="90" height="150" as="geometry" />
        </mxCell>
        <mxCell id="TGb0v_Ev0zIkkcW78ou3-7" value="10.152.57.11" style="text;html=1;strokeColor=none;fillColor=none;align=center;verticalAlign=middle;whiteSpace=wrap;rounded=0;" vertex="1" parent="TGb0v_Ev0zIkkcW78ou3-9">
          <mxGeometry x="10" y="20" width="60" height="30" as="geometry" />
        </mxCell>
        <mxCell id="TGb0v_Ev0zIkkcW78ou3-10" value="10.155.250.75" style="text;html=1;strokeColor=none;fillColor=none;align=center;verticalAlign=middle;whiteSpace=wrap;rounded=0;" vertex="1" parent="TGb0v_Ev0zIkkcW78ou3-6">
          <mxGeometry x="20" y="30" width="60" height="30" as="geometry" />
        </mxCell>
        <mxCell id="TGb0v_Ev0zIkkcW78ou3-23" value="" style="endArrow=none;html=1;rounded=0;entryX=0.41;entryY=0;entryDx=0;entryDy=0;entryPerimeter=0;" edge="1" parent="TGb0v_Ev0zIkkcW78ou3-6" target="TGb0v_Ev0zIkkcW78ou3-6">
          <mxGeometry width="50" height="50" relative="1" as="geometry">
            <mxPoint x="141.92893401015226" y="111.92893401015226" as="sourcePoint" />
            <mxPoint x="170" y="70" as="targetPoint" />
          </mxGeometry>
        </mxCell>
        <mxCell id="TGb0v_Ev0zIkkcW78ou3-34" value=":5000" style="rhombus;whiteSpace=wrap;html=1;" vertex="1" parent="TGb0v_Ev0zIkkcW78ou3-6">
          <mxGeometry x="190" y="90" width="64" height="50" as="geometry" />
        </mxCell>
        <mxCell id="TGb0v_Ev0zIkkcW78ou3-35" value="" style="endArrow=classic;html=1;rounded=0;entryX=0;entryY=0.5;entryDx=0;entryDy=0;" edge="1" parent="TGb0v_Ev0zIkkcW78ou3-6" target="TGb0v_Ev0zIkkcW78ou3-34">
          <mxGeometry width="50" height="50" relative="1" as="geometry">
            <mxPoint x="144" y="110" as="sourcePoint" />
            <mxPoint x="184" y="130" as="targetPoint" />
          </mxGeometry>
        </mxCell>
        <mxCell id="TGb0v_Ev0zIkkcW78ou3-21" value="" style="endArrow=none;html=1;rounded=0;" edge="1" parent="TGb0v_Ev0zIkkcW78ou3-4">
          <mxGeometry width="50" height="50" relative="1" as="geometry">
            <mxPoint y="70" as="sourcePoint" />
            <mxPoint x="280" y="70" as="targetPoint" />
          </mxGeometry>
        </mxCell>
        <mxCell id="TGb0v_Ev0zIkkcW78ou3-29" value=":80" style="rhombus;whiteSpace=wrap;html=1;" vertex="1" parent="TGb0v_Ev0zIkkcW78ou3-4">
          <mxGeometry x="240" y="120" width="80" height="40" as="geometry" />
        </mxCell>
        <mxCell id="TGb0v_Ev0zIkkcW78ou3-30" value="" style="endArrow=classic;html=1;rounded=0;entryX=0.5;entryY=0;entryDx=0;entryDy=0;" edge="1" parent="TGb0v_Ev0zIkkcW78ou3-4" target="TGb0v_Ev0zIkkcW78ou3-29">
          <mxGeometry width="50" height="50" relative="1" as="geometry">
            <mxPoint x="280" y="70" as="sourcePoint" />
            <mxPoint x="280" y="110" as="targetPoint" />
          </mxGeometry>
        </mxCell>
        <mxCell id="TGb0v_Ev0zIkkcW78ou3-13" value="requete" style="rounded=0;whiteSpace=wrap;html=1;" vertex="1" parent="1">
          <mxGeometry x="-280" y="240" width="120" height="60" as="geometry" />
        </mxCell>
        <mxCell id="TGb0v_Ev0zIkkcW78ou3-15" value="" style="rhombus;whiteSpace=wrap;html=1;" vertex="1" parent="1">
          <mxGeometry x="50" y="230" width="80" height="80" as="geometry" />
        </mxCell>
        <mxCell id="TGb0v_Ev0zIkkcW78ou3-16" value=":8001" style="text;html=1;strokeColor=none;fillColor=none;align=center;verticalAlign=middle;whiteSpace=wrap;rounded=0;" vertex="1" parent="1">
          <mxGeometry x="60" y="255" width="60" height="30" as="geometry" />
        </mxCell>
        <mxCell id="TGb0v_Ev0zIkkcW78ou3-18" value="" style="endArrow=classic;html=1;rounded=0;exitX=1;exitY=0.5;exitDx=0;exitDy=0;entryX=0;entryY=0.5;entryDx=0;entryDy=0;" edge="1" parent="1" source="TGb0v_Ev0zIkkcW78ou3-13" target="TGb0v_Ev0zIkkcW78ou3-15">
          <mxGeometry width="50" height="50" relative="1" as="geometry">
            <mxPoint x="-110" y="340" as="sourcePoint" />
            <mxPoint x="-60" y="290" as="targetPoint" />
          </mxGeometry>
        </mxCell>
      </root>
    </mxGraphModel>
  </diagram>
</mxfile>
